<svg version="1.1" id="Layer_1" xmlns="http://www.w3.org/2000/svg" xmlns:xlink="http://www.w3.org/1999/xlink" x="0px" y="0px"
	 width="100%" viewBox="0 0 380 389" enable-background="new 0 0 380 389" xml:space="preserve">
<path fill="#FC1503" opacity="1.000000" stroke="none" 
	d="
M239.000000,0.999999 
	C254.687561,1.000000 270.375122,1.000000 286.287262,1.357609 
	C287.344360,2.142873 288.132874,2.785594 289.015930,2.966159 
	C304.084106,6.047285 316.903778,13.559323 327.519867,24.277672 
	C340.124481,37.003719 348.989471,52.415371 356.086395,68.817940 
	C367.421967,95.016953 374.757599,122.344719 376.745972,150.780563 
	C378.135681,170.654663 377.489105,190.680923 373.771759,210.375610 
	C367.561737,243.276718 359.174530,275.602997 345.800140,306.403015 
	C335.375580,330.409729 321.418762,351.808563 298.503937,365.973846 
	C275.511017,380.187378 250.795410,385.929779 224.140335,379.793304 
	C204.279205,375.220856 188.381210,363.353241 173.667984,349.923676 
	C159.773193,337.241180 146.829575,323.459381 132.429001,311.401489 
	C110.127495,292.727966 86.764580,275.328430 64.189560,256.973206 
	C46.065247,242.236740 29.288738,226.116470 16.692783,206.122284 
	C7.924674,192.204224 2.873637,177.239578 5.271410,160.752365 
	C7.742818,143.758835 15.925872,128.896561 26.991638,116.249870 
	C38.079826,103.577545 50.467457,91.942039 63.039410,80.694756 
	C77.206406,68.020493 93.292274,57.818359 110.147728,49.078632 
	C125.784172,40.970974 141.625839,33.172703 157.783997,26.178093 
	C181.440399,15.937616 205.869446,7.928080 231.467041,3.895346 
	C234.065582,3.485967 236.493118,1.991122 239.000000,0.999999 
M188.292587,132.879166 
	C182.719925,130.076996 177.147247,127.274818 170.726044,124.045959 
	C170.726044,134.499374 170.726044,144.208969 170.065918,154.065979 
	C164.851562,164.456360 159.637222,174.846725 154.054214,185.971710 
	C152.702118,183.285660 151.697388,181.404434 150.793579,179.475906 
	C144.019470,165.021042 137.304886,150.538010 130.445892,136.123627 
	C129.729385,134.617874 128.239685,132.427551 127.033195,132.377563 
	C118.969185,132.043365 110.884659,132.203995 101.896027,132.203995 
	C103.197067,134.963882 104.025169,136.890869 104.992012,138.745529 
	C116.602112,161.016724 128.300507,183.242447 139.769043,205.586182 
	C141.144150,208.265228 141.845383,211.556335 141.921753,214.587387 
	C142.181549,224.898163 142.238525,235.226212 141.921722,245.533798 
	C141.782562,250.061523 143.358063,251.386810 147.655807,251.074265 
	C152.125229,250.749252 156.646729,250.815155 161.126450,251.059021 
	C164.785233,251.258209 166.121704,250.007278 166.044266,246.249054 
	C165.838669,236.268784 166.222046,226.273041 165.881821,216.300156 
	C165.682343,210.452484 167.526093,205.591873 170.977142,201.983444 
	C170.977142,221.335907 170.977142,240.688385 170.977142,260.839264 
	C174.507523,258.800110 177.086151,257.335571 179.641174,255.830963 
	C201.699097,242.841446 223.752777,229.844727 246.428329,217.452728 
	C246.619400,219.252563 246.960861,221.051193 246.975418,222.852463 
	C247.037231,230.510345 247.150970,238.173141 246.938751,245.825638 
	C246.835022,249.566528 247.759384,251.369064 251.924591,251.072800 
	C256.562744,250.742905 261.255402,250.782974 265.900116,251.063202 
	C269.824982,251.300003 271.101990,249.935425 271.050598,245.966568 
	C270.860962,231.318420 270.994598,216.666107 271.495636,201.535919 
	C278.608643,197.259521 285.721619,192.983124 293.157410,188.512650 
	C285.314392,184.201279 278.078094,180.223389 270.914062,175.279251 
	C270.935730,169.460876 271.203796,163.629547 270.899139,157.828308 
	C270.665741,153.384857 271.919525,151.543106 276.694885,151.812393 
	C283.489441,152.195572 290.325500,151.773926 297.136383,151.963791 
	C300.669281,152.062271 302.425079,151.077774 302.145264,147.213364 
	C301.893768,143.740341 301.940063,140.226212 302.135620,136.745972 
	C302.325806,133.361557 301.140808,132.021454 297.599976,132.035675 
	C271.665588,132.139923 245.730560,132.124847 219.795990,132.052917 
	C216.406555,132.043503 215.079269,133.292191 215.007050,136.731689 
	C214.940125,139.918289 214.152359,143.089737 213.010345,146.077652 
	C209.693222,144.324814 206.376114,142.571976 203.040894,140.085602 
	C203.824829,137.643112 204.608765,135.200638 205.735504,131.690079 
	C199.684555,132.163467 194.342300,132.581421 188.292587,132.879166 
z"/>
<path fill="#010000" opacity="1.000000" stroke="none" 
	d="
M238.531342,0.999999 
	C236.493118,1.991122 234.065582,3.485967 231.467041,3.895346 
	C205.869446,7.928080 181.440399,15.937616 157.783997,26.178093 
	C141.625839,33.172703 125.784172,40.970974 110.147728,49.078632 
	C93.292274,57.818359 77.206406,68.020493 63.039410,80.694756 
	C50.467457,91.942039 38.079826,103.577545 26.991638,116.249870 
	C15.925872,128.896561 7.742818,143.758835 5.271410,160.752365 
	C2.873637,177.239578 7.924674,192.204224 16.692783,206.122284 
	C29.288738,226.116470 46.065247,242.236740 64.189560,256.973206 
	C86.764580,275.328430 110.127495,292.727966 132.429001,311.401489 
	C146.829575,323.459381 159.773193,337.241180 173.667984,349.923676 
	C188.381210,363.353241 204.279205,375.220856 224.140335,379.793304 
	C250.795410,385.929779 275.511017,380.187378 298.503937,365.973846 
	C321.418762,351.808563 335.375580,330.409729 345.800140,306.403015 
	C359.174530,275.602997 367.561737,243.276718 373.771759,210.375610 
	C377.489105,190.680923 378.135681,170.654663 376.745972,150.780563 
	C374.757599,122.344719 367.421967,95.016953 356.086395,68.817940 
	C348.989471,52.415371 340.124481,37.003719 327.519867,24.277672 
	C316.903778,13.559323 304.084106,6.047285 289.015930,2.966159 
	C288.132874,2.785594 287.344360,2.142873 286.755920,1.357609 
	C318.324127,1.000000 349.648254,1.000000 380.979309,0.999999 
	C380.986206,130.619370 380.986206,260.238739 380.986206,389.929077 
	C254.417862,389.929077 127.835678,389.929077 1.126745,389.929077 
	C1.126745,260.456024 1.126745,130.911896 1.126745,1.000000 
	C80.020515,1.000000 159.041595,1.000000 238.531342,0.999999 
z"/>
<path fill="#FFFEFE" opacity="1.000000" stroke="none" 
	d="
M245.807709,216.850159 
	C223.752777,229.844727 201.699097,242.841446 179.641174,255.830963 
	C177.086151,257.335571 174.507523,258.800110 170.977142,260.839264 
	C170.977142,240.688385 170.977142,221.335907 170.988495,201.053741 
	C170.908585,184.722214 170.817307,169.320389 170.726044,153.918564 
	C170.726044,144.208969 170.726044,134.499374 170.726044,124.045959 
	C177.147247,127.274818 182.719925,130.076996 188.820953,133.238251 
	C193.919205,136.004608 198.489090,138.411880 203.058990,140.819138 
	C206.376114,142.571976 209.693222,144.324814 213.558426,146.453491 
	C217.148163,148.209320 220.189804,149.589310 223.421234,151.237549 
	C230.999130,155.399063 238.387253,159.292297 245.983002,163.470688 
	C254.407654,167.919067 262.624725,172.082291 270.841766,176.245514 
	C278.078094,180.223389 285.314392,184.201279 293.157410,188.512650 
	C285.721619,192.983124 278.608643,197.259521 270.906372,201.828918 
	C262.147308,207.031357 253.977509,211.940765 245.807709,216.850159 
z"/>
<path fill="#FF4D3F" opacity="1.000000" stroke="none" 
	d="
M170.395981,153.992279 
	C170.817307,169.320389 170.908585,184.722214 170.930450,200.592041 
	C167.526093,205.591873 165.682343,210.452484 165.881821,216.300156 
	C166.222046,226.273041 165.838669,236.268784 166.044266,246.249054 
	C166.121704,250.007278 164.785233,251.258209 161.126450,251.059021 
	C156.646729,250.815155 152.125229,250.749252 147.655807,251.074265 
	C143.358063,251.386810 141.782562,250.061523 141.921722,245.533798 
	C142.238525,235.226212 142.181549,224.898163 141.921753,214.587387 
	C141.845383,211.556335 141.144150,208.265228 139.769043,205.586182 
	C128.300507,183.242447 116.602112,161.016724 104.992012,138.745529 
	C104.025169,136.890869 103.197067,134.963882 101.896027,132.203995 
	C110.884659,132.203995 118.969185,132.043365 127.033195,132.377563 
	C128.239685,132.427551 129.729385,134.617874 130.445892,136.123627 
	C137.304886,150.538010 144.019470,165.021042 150.793579,179.475906 
	C151.697388,181.404434 152.702118,183.285660 154.054214,185.971710 
	C159.637222,174.846725 164.851562,164.456360 170.395981,153.992279 
z"/>
<path fill="#FF4D3F" opacity="1.000000" stroke="none" 
	d="
M270.877930,175.762390 
	C262.624725,172.082291 254.407654,167.919067 246.292511,163.169861 
	C246.600632,160.801910 246.757233,159.012497 247.022705,157.239380 
	C247.723663,152.557495 245.961761,150.733307 241.058380,151.032837 
	C235.139450,151.394363 229.175766,151.023270 223.231461,150.969284 
	C220.189804,149.589310 217.148163,148.209320 213.894257,146.548599 
	C214.152359,143.089737 214.940125,139.918289 215.007050,136.731689 
	C215.079269,133.292191 216.406555,132.043503 219.795990,132.052917 
	C245.730560,132.124847 271.665588,132.139923 297.599976,132.035675 
	C301.140808,132.021454 302.325806,133.361557 302.135620,136.745972 
	C301.940063,140.226212 301.893768,143.740341 302.145264,147.213364 
	C302.425079,151.077774 300.669281,152.062271 297.136383,151.963791 
	C290.325500,151.773926 283.489441,152.195572 276.694885,151.812393 
	C271.919525,151.543106 270.665741,153.384857 270.899139,157.828308 
	C271.203796,163.629547 270.935730,169.460876 270.877930,175.762390 
z"/>
<path fill="#FF4E40" opacity="1.000000" stroke="none" 
	d="
M246.118027,217.151459 
	C253.977509,211.940765 262.147308,207.031357 270.661865,202.068634 
	C270.994598,216.666107 270.860962,231.318420 271.050598,245.966568 
	C271.101990,249.935425 269.824982,251.300003 265.900116,251.063202 
	C261.255402,250.782974 256.562744,250.742905 251.924591,251.072800 
	C247.759384,251.369064 246.835022,249.566528 246.938751,245.825638 
	C247.150970,238.173141 247.037231,230.510345 246.975418,222.852463 
	C246.960861,221.051193 246.619400,219.252563 246.118027,217.151459 
z"/>
<path fill="#FF4B3D" opacity="1.000000" stroke="none" 
	d="
M203.049942,140.452362 
	C198.489090,138.411880 193.919205,136.004608 189.174683,133.298355 
	C194.342300,132.581421 199.684555,132.163467 205.735504,131.690079 
	C204.608765,135.200638 203.824829,137.643112 203.049942,140.452362 
z"/>
<path fill="#FC1A08" opacity="1.000000" stroke="none" 
	d="
M223.421234,151.237549 
	C229.175766,151.023270 235.139450,151.394363 241.058380,151.032837 
	C245.961761,150.733307 247.723663,152.557495 247.022705,157.239380 
	C246.757233,159.012497 246.600632,160.801910 246.084900,162.884720 
	C238.387253,159.292297 230.999130,155.399063 223.421234,151.237549 
z"/>
</svg>